<?xml version="1.0" standalone="no"?><!DOCTYPE svg PUBLIC "-//W3C//DTD SVG 1.1//EN" "http://www.w3.org/Graphics/SVG/1.1/DTD/svg11.dtd"><svg t="1595552535375" class="icon" viewBox="0 0 1024 1024" version="1.1" xmlns="http://www.w3.org/2000/svg" p-id="3977" xmlns:xlink="http://www.w3.org/1999/xlink" width="200" height="200"><defs><style type="text/css"></style></defs><path d="M512.222285 63.017778c-247.953285 0-448.954436 200.990036-448.954436 448.943322 0 247.936614 201.00115 448.948879 448.954436 448.948879 247.942171 0 448.943322-201.012265 448.943322-448.948879 0-247.953285-201.00115-448.943322-448.943322-448.943322z m4.234528 680.019624c-1.261467 2.711876-4.112271 7.102004-6.651877 8.985868-23.217661 17.36601-114.843511 84.412703-115.916035 85.124015-4.806912 3.350945-12.675798 8.369028-22.339636 4.284543-10.997547-4.545727-10.441835-12.220114-11.114246-18.405193-0.066685-1.25591-9.908351-118.616797-12.03673-138.56687-0.316756-2.645191-0.250071-9.480452 0.844683-11.992272 5.979465-13.498253 175.860725-386.33677 175.855168-386.33677l167.202726 70.564352-175.844053 386.342327z m193.432348-424.958777c-0.583498 1.33371-1.272581 2.728548-5.862765 12.875854L536.818113 260.38457c2.834133-6.251764 4.951397-10.814162 5.873879-12.881412 31.792303-69.836369 70.558795-78.183168 125.774372-54.859921 42.195237 17.816137 73.83194 54.248638 41.422797 125.435388z" p-id="3978" fill="#FF5777"></path><path d="M512.222285 0.005557C229.481408 0.005557 0.261185 229.214666 0.261185 511.9611s229.220223 511.9611 511.9611 511.9611 511.949986-229.214666 511.949986-511.9611S794.963162 0.005557 512.222285 0.005557z m0 1016.036642c-278.400764 0-504.081099-225.685892-504.081099-504.081099S233.821521 7.885558 512.222285 7.885558c278.38965 0 504.081099 225.680335 504.081099 504.075542s-225.691449 504.081099-504.081099 504.081099z" p-id="3979" fill="#FF5777"></path></svg>