<?xml version="1.0" standalone="no"?><!DOCTYPE svg PUBLIC "-//W3C//DTD SVG 1.1//EN" "http://www.w3.org/Graphics/SVG/1.1/DTD/svg11.dtd"><svg t="1597544513836" class="icon" viewBox="0 0 1024 1024" version="1.1" xmlns="http://www.w3.org/2000/svg" p-id="3760" xmlns:xlink="http://www.w3.org/1999/xlink" width="200" height="200"><defs><style type="text/css"></style></defs><path d="M982.927752 219.24928s-111.851777 130.658713-335.555331 158.869117c0 0 108.387341 30.685001 194.503311 0 115.316213-41.573227 141.05202-158.869117 141.05202-158.869117M945.808799 397.915171s-136.597745 108.882261-320.21283 110.367019c0 0 75.227744 33.159598 157.384359 22.271372 118.285729-15.83742 162.828472-132.63839 162.828471-132.638391M893.347347 562.723321s-92.055002 101.95339-341.989283 67.309034c0 0 97.994035 59.390324 197.472827 48.007179 106.902583-11.878065 144.516455-115.316213 144.516456-115.316213M184.622812 847.796877c10.888226-21.281533 31.17992-25.735807 51.966534-23.75613 72.258228 53.946211 153.919923 68.793792 203.41186 71.268389 104.922906 5.444113 198.462666-30.685001 198.462666-30.685001-264.781862 27.715485-381.087913-85.621051-438.993479-148.47581-91.065164-97.994035-163.323391-93.044841-163.323391-93.044841 56.915727 22.271372 111.851777 109.37718 146.001213 149.960568 1.979677 2.474597 3.959355 4.454274 5.939033 6.928871-10.888226 3.464436-23.26121 8.908549-34.149437 18.312017-36.624033 31.17992-64.834437 156.39452 145.506294 208.855973 151.445326 37.613872 381.582832 4.949194 453.84106-27.220565C199.965313 1046.754462 165.320957 883.92599 184.622812 847.796877" fill="#d95155" p-id="3761"></path><path d="M987.382026 0c-27.220565 149.465649-64.339518 218.75436-204.896618 266.761539-98.983874 33.654517-197.967747 21.776452-269.236136 53.451292-73.742986 33.159598-72.258228 122.740003-61.370001 195.49315 19.301855 129.173955-63.844598 152.435165-85.126132 158.374198-32.664678 8.908549-78.19726 6.433952-137.587584-32.169759-62.85476-41.078308-92.549922-43.057985-120.760325-43.057985-31.17992 0-72.258228 24.251049-72.258228 24.251049 93.53976-120.265406 191.038876-29.200243 249.439361-12.372984 52.956372 14.847581 118.780648 3.959355 103.438148-75.227744-28.705323-147.980891 10.393307-234.59178 104.922906-286.063395 57.410647-31.17992 160.848794-38.603711 255.378394-67.309034C922.547589 130.163794 987.382026 0 987.382026 0" fill="#d95155" p-id="3762"></path></svg>